<svg width="1200" height="800" viewBox="0 0 1200 800" fill="none" xmlns="http://www.w3.org/2000/svg">
  <defs>
    <linearGradient id="g1" x1="0" y1="0" x2="1" y2="1">
      <stop offset="0%" stop-color="#7C9BFF" stop-opacity="0.9" />
      <stop offset="50%" stop-color="#4ED4FF" stop-opacity="0.7" />
      <stop offset="100%" stop-color="#0B0F1E" stop-opacity="0.9" />
    </linearGradient>
    <radialGradient id="glow" cx="50%" cy="50%" r="60%">
      <stop offset="0%" stop-color="#E0F2FE" stop-opacity="0.6" />
      <stop offset="70%" stop-color="#0B0F1E" stop-opacity="0" />
    </radialGradient>
  </defs>
  <rect width="1200" height="800" fill="#0B0F1E" />
  <circle cx="260" cy="220" r="220" fill="url(#glow)" />
  <circle cx="940" cy="580" r="280" fill="url(#glow)" opacity="0.6" />
  <rect x="120" y="140" width="960" height="520" rx="60" fill="url(#g1)" opacity="0.9" />
  <rect x="200" y="220" width="800" height="360" rx="42" fill="#0F172A" />
  <rect x="240" y="260" width="420" height="40" rx="12" fill="#1F2937" />
  <rect x="240" y="320" width="520" height="18" rx="9" fill="#1F2937" />
  <rect x="240" y="360" width="480" height="18" rx="9" fill="#1F2937" />
  <rect x="240" y="400" width="360" height="18" rx="9" fill="#1F2937" />
  <circle cx="780" cy="400" r="90" fill="#1F2937" />
  <circle cx="780" cy="400" r="50" fill="#111827" />
  <rect x="260" y="470" width="200" height="70" rx="16" fill="#7C9BFF" />
  <rect x="480" y="470" width="200" height="70" rx="16" fill="#58D2FF" />
</svg>
